<?xml version="1.0" encoding="UTF-8" standalone="no"?>
<svg
   xmlns:dc="http://purl.org/dc/elements/1.1/"
   xmlns:cc="http://creativecommons.org/ns#"
   xmlns:rdf="http://www.w3.org/1999/02/22-rdf-syntax-ns#"
   xmlns:svg="http://www.w3.org/2000/svg"
   xmlns="http://www.w3.org/2000/svg"
   viewBox="0 0 429.33334 429.33334"
   height="429.33334"
   width="429.33334"
   xml:space="preserve"
   id="svg2"
   version="1.1"><metadata
     id="metadata8"><rdf:RDF><cc:Work
         rdf:about=""><dc:format>image/svg+xml</dc:format><dc:type
           rdf:resource="http://purl.org/dc/dcmitype/StillImage" /></cc:Work></rdf:RDF></metadata><defs
     id="defs6"><clipPath
       id="clipPath20"
       clipPathUnits="userSpaceOnUse"><path
         id="path18"
         d="m 1594.55,463.332 c -631.226,0 -1144.741,513.52 -1144.741,1144.698 0,107.65 14.964,214.35 44.589,317.14 140.247,487.26 592.612,827.53 1100.152,827.53 631.16,0 1144.73,-513.5 1144.73,-1144.67 0,-60.47 -4.83,-121.34 -14.38,-180.88 C 2682.7,1161.14 2546.42,917.199 2341.21,740.398 2133.82,561.711 1868.57,463.332 1594.55,463.332 Z" /></clipPath><linearGradient
       id="linearGradient34"
       spreadMethod="pad"
       gradientTransform="matrix(2289.47,0,0,-2289.47,449.81,1608.02)"
       gradientUnits="userSpaceOnUse"
       y2="0"
       x2="1"
       y1="0"
       x1="0"><stop
         id="stop22"
         offset="0"
         style="stop-opacity:1;stop-color:#c6cdd4" /><stop
         id="stop24"
         offset="0.010989"
         style="stop-opacity:1;stop-color:#c6cdd4" /><stop
         id="stop26"
         offset="0.247253"
         style="stop-opacity:1;stop-color:#ffffff" /><stop
         id="stop28"
         offset="0.516483"
         style="stop-opacity:1;stop-color:#c6cdd4" /><stop
         id="stop30"
         offset="0.835165"
         style="stop-opacity:1;stop-color:#b4bdd6" /><stop
         id="stop32"
         offset="1"
         style="stop-opacity:1;stop-color:#c6cdd4" /></linearGradient><clipPath
       id="clipPath44"
       clipPathUnits="userSpaceOnUse"><path
         id="path42"
         d="m 1594.53,2630.55 c -453.37,0 -857.514,-303.94 -982.776,-739.16 -26.438,-91.77 -39.805,-187.12 -39.805,-283.36 0,-563.8 458.691,-1022.55 1022.581,-1022.55 244.83,0 481.7,87.899 666.99,247.481 183.33,157.891 305.05,375.799 342.79,613.469 8.49,53.3 12.81,107.69 12.81,161.6 0,563.84 -458.77,1022.52 -1022.59,1022.52 z" /></clipPath><radialGradient
       id="radialGradient50"
       spreadMethod="pad"
       gradientTransform="matrix(1280.5,0,0,-1280.5,1594.53,1608.01)"
       gradientUnits="userSpaceOnUse"
       r="1"
       cy="0"
       cx="0"
       fy="0"
       fx="0"><stop
         id="stop46"
         offset="0"
         style="stop-opacity:1;stop-color:#2e3e9c" /><stop
         id="stop48"
         offset="1"
         style="stop-opacity:1;stop-color:#151829" /></radialGradient><clipPath
       id="clipPath60"
       clipPathUnits="userSpaceOnUse"><path
         id="path58"
         d="M 2674.99,1233.82 H 514.07 v 360.41 h 2160.92 z" /></clipPath><linearGradient
       id="linearGradient74"
       spreadMethod="pad"
       gradientTransform="matrix(2160.92,0,0,-2160.92,514.072,1414.02)"
       gradientUnits="userSpaceOnUse"
       y2="0"
       x2="1"
       y1="0"
       x1="0"><stop
         id="stop62"
         offset="0"
         style="stop-opacity:1;stop-color:#c6cdd4" /><stop
         id="stop64"
         offset="0.010989"
         style="stop-opacity:1;stop-color:#c6cdd4" /><stop
         id="stop66"
         offset="0.247253"
         style="stop-opacity:1;stop-color:#ffffff" /><stop
         id="stop68"
         offset="0.516483"
         style="stop-opacity:1;stop-color:#c6cdd4" /><stop
         id="stop70"
         offset="0.835165"
         style="stop-opacity:1;stop-color:#b4bdd6" /><stop
         id="stop72"
         offset="1"
         style="stop-opacity:1;stop-color:#c6cdd4" /></linearGradient><clipPath
       id="clipPath84"
       clipPathUnits="userSpaceOnUse"><path
         id="path82"
         d="m 2424.87,1321 5.4,5.68 v 192.72 l -5.4,5.68 v 19.77 h 122.99 v -56.26 h -36.82 v 27.11 h -25.15 v -73.4 h 19.08 v 12.09 h 26.12 v -54.67 h -26.12 v 12.08 h -19.08 v -81.43 h 25.15 v 35.84 h 35.53 v -64.99 h -121.7 z m -23.78,-19.78 h -24.15 c -2.99,3.33 -5.71,6.67 -8.36,10.06 -14.1,-11.42 -30.16,-14.1 -43.22,-14.1 -19.14,0 -37.22,6.02 -49.65,25.49 -5.32,8.37 -8.67,19.43 -9.71,32.15 -2.98,43.23 -3.65,107.26 2.06,151.51 3.34,25.13 22.75,42.56 55.63,42.56 14.42,0 29.44,-1.33 39.49,-10.38 l 3.37,6.34 h 28.54 v -82.46 h -43.62 v 34.56 c 0,10.73 -4.04,16.79 -14.72,16.79 -9.39,0 -15.77,-5.06 -15.77,-21.47 v -142.15 c 0,-12.73 7.07,-14.4 11.05,-14.4 4.01,0 12.39,3.39 15.74,7.71 v 74.41 l -5.31,5.06 v 12.37 h 64 v -11.72 l -5.37,-5.71 z m -232.91,29.15 c 12.36,0 18.06,5.67 18.06,38.55 v 116.64 c 0,21.11 -1.68,30.14 -14.4,30.14 h -10.69 v -185.33 z m -68.06,-9.37 5.31,5.68 v 192.72 l -5.31,5.68 v 19.77 h 71.72 c 72.38,0 71.4,-48.58 71.4,-119.98 0,-33.83 -2.35,-61.33 -7.7,-84.47 -5.37,-22.77 -20.14,-39.18 -52.94,-39.18 h -82.48 z m -21.11,0 v -19.78 h -68.39 V 1321 l 5.38,5.68 v 192.72 l -5.38,5.68 v 19.77 h 68.39 v -19.77 l -5.35,-5.68 v -192.72 z m -160.88,111.91 c 8.36,0 12.73,3.71 12.73,12.07 v 58 c 0,9.72 -5.4,12.72 -11.73,12.72 h -11.05 v -82.79 z m 10.72,-131.69 v 85.1 c 0,9.73 -7.66,16.08 -20.77,15.43 v -75.07 l 5.35,-5.68 v -19.78 h -66.34 V 1321 l 5.34,5.68 v 192.72 l -5.34,5.68 v 19.77 h 84.44 c 42.6,0 55.64,-19.4 55.64,-61.66 0,-31.17 -6.04,-62.35 -28.48,-67.7 16.09,-3.69 26.49,-14.07 26.49,-31.84 v -56.97 l 5.31,-5.68 v -19.78 z m -158.83,41.55 v 50.26 c 0,13.41 -1.34,20.76 -11.07,20.76 h -11.4 v -83.42 c 8,0 22.47,-2.02 22.47,12.4 z m -13.09,100.22 c 12.07,0 12.72,17.42 12.72,38.18 0,20.16 -0.65,34.53 -11.43,34.53 h -10.67 v -72.71 z m -70.39,-121.99 5.34,5.68 v 192.72 l -5.34,5.68 v 19.77 h 75.43 c 57.96,0 61.99,-27.46 61.99,-63.31 0,-24.16 -4.71,-47.96 -26.16,-52.65 24.14,-7.03 30.85,-30.15 30.85,-55.66 0,-12.35 -0.34,-26.12 -3,-38.16 -4.37,-20.78 -25.81,-33.85 -49.28,-33.85 h -89.83 z m -145.46,149.11 c 4.73,5.71 8.74,18.09 9.07,28.85 0.31,12.05 -3.39,22.78 -14.76,22.78 -4.73,0 -10.74,-3.68 -8.38,-12.41 3.65,-11.39 10.06,-30.14 14.07,-39.22 z m -30.14,-51.28 c -5.38,-8.7 -7.75,-19.41 -8.07,-30.84 -0.68,-26.8 11.05,-55.29 34.89,-55.29 3.68,0 8.05,2.02 10.01,4.06 z m 53.26,-110.59 c -12.07,-8.03 -29.81,-11.38 -46.57,-11.38 -40.24,0 -68.74,26.79 -68.74,75.41 0,28.48 12.75,62.7 48.63,78.08 -13.42,28.5 -19.09,44.9 -18.13,57.33 0.71,27.46 24.86,41.21 50.64,41.21 34.17,0 56.31,-16.11 54.96,-50.61 -0.34,-20.11 -8.39,-41.22 -31.5,-54.32 l 30.5,-71.69 c 3.69,7.02 5.68,14.74 5.68,22.8 0.35,14.04 -4.68,28.8 -17.72,34.14 l 9.35,15.45 h 24.46 c 14.74,0 18.78,-0.7 21.81,-12.75 1.29,-5.35 1.29,-11.38 1.29,-16.78 -0.64,-23.44 -12.75,-55.25 -27.05,-76.02 3.27,-6.07 5.33,-8.43 14.66,-8.43 h 14.78 l -13.1,-29.46 h -31.13 c -12.07,0 -19.09,2.67 -22.82,7.02 z m -247.65,240.65 c 15.04,0 27.42,-2.02 36.83,-10.38 l 3.7,6.34 h 28.16 v -84.77 h -44.56 v 20.44 c 0,26.15 -0.34,32.84 -17.09,32.84 -7.72,0 -12.76,-3.67 -13.75,-10.38 -1.7,-11.07 -2.04,-35.86 0.65,-47.97 3.7,-14.05 27.14,-19.74 42.89,-25.44 21.1,-8.05 31.2,-17.77 35.52,-36.54 2.37,-10.74 3.02,-20.76 3.02,-32.47 0,-42.57 -14.07,-63.38 -62.34,-63.38 -13.39,0 -24.79,1.69 -36.2,10.08 l -4,-6.04 h -27.49 v 71.72 h 42.61 v -27.52 c 0,-10.7 5.34,-12.72 16.05,-12.72 14.41,0 16.11,6.01 16.42,12.42 0.3,8.03 0.66,17.43 0,24.82 -1.65,23.09 -35.2,25.13 -53.95,37.16 -24.84,17.77 -26.47,36.21 -26.47,76.76 0,27.85 6.01,48.27 21.45,57.67 10.01,6.35 24.79,7.36 38.55,7.36 z m -149.18,0 c 15.09,0 27.45,-2.02 36.9,-10.38 l 3.68,6.34 h 28.13 v -84.77 h -44.58 v 20.44 c 0,26.15 -0.36,32.84 -17.06,32.84 -7.73,0 -12.74,-3.67 -13.76,-10.38 -1.67,-11.07 -2.01,-35.86 0.68,-47.97 3.68,-14.05 27.14,-19.74 42.91,-25.44 21.1,-8.05 31.16,-17.77 35.52,-36.54 2.32,-10.74 3,-20.76 3,-32.47 0,-42.57 -14.05,-63.38 -62.34,-63.38 -13.4,0 -24.81,1.69 -36.17,10.08 l -4.03,-6.04 h -27.52 v 71.72 h 42.59 v -27.52 c 0,-10.7 5.36,-12.72 16.07,-12.72 14.4,0 16.07,6.01 16.45,12.42 0.34,8.03 0.66,17.43 0,24.82 -1.7,23.09 -35.23,25.13 -54.01,37.16 -24.78,17.77 -26.45,36.21 -26.45,76.76 0,27.85 6.03,48.27 21.44,57.67 10.1,6.35 24.81,7.36 38.55,7.36 z M 964.926,1321 l 5.383,5.68 v 192.72 l -5.383,5.68 v 19.77 h 123.034 v -56.26 h -36.85 v 27.11 h -25.17 v -73.4 h 19.11 v 12.09 h 26.15 v -54.67 h -26.15 v 12.08 h -19.11 v -81.43 h 25.17 v 35.84 h 35.52 v -64.99 H 964.926 Z m -106.219,0 v -19.78 H 792.344 V 1321 l 5.351,5.68 v 192.72 l -5.351,5.68 v 19.77 h 66.363 v -19.77 l -5.355,-5.68 v -75.44 h 30.48 v 75.44 l -5.355,5.68 v 19.77 h 66.363 v -19.77 l -5.352,-5.68 v -192.72 l 5.352,-5.68 v -19.78 H 878.477 V 1321 l 5.355,5.68 v 85.49 h -30.48 v -85.49 z m -118.324,217.51 3.351,6.34 h 28.524 v -84.77 h -43.59 v 36.87 c 0,12.38 -4.016,17.07 -15.098,17.07 -10.031,0 -14.414,-4.69 -14.414,-16.08 v -149.82 c 0,-7.02 3.696,-14.77 14.414,-14.77 19.793,0 22.469,3.71 23.129,39.59 h 34.848 c 1.019,-14.44 0,-32.54 -1.309,-43.24 -3.386,-24.5 -30.175,-32.52 -56.332,-32.52 -29.16,0 -64.328,5.04 -69.718,54.63 -2.348,21.13 -2.993,46.93 -2.993,73.4 0,27.82 0.321,57.66 5.36,84.48 5.691,30.49 32.511,39.2 60.968,39.2 7.743,0 22.813,-1.67 32.86,-10.38 z" /></clipPath><linearGradient
       id="linearGradient90"
       spreadMethod="pad"
       gradientTransform="matrix(-1.1e-5,-252.031,-252.031,1.1e-5,1594.53,1548.89)"
       gradientUnits="userSpaceOnUse"
       y2="0"
       x2="1"
       y1="0"
       x1="0"><stop
         id="stop86"
         offset="0"
         style="stop-opacity:1;stop-color:#2e3e9c" /><stop
         id="stop88"
         offset="1"
         style="stop-opacity:1;stop-color:#151829" /></linearGradient></defs><g
     transform="matrix(1.3333333,0,0,-1.3333333,0,429.33333)"
     id="g10"><g
       transform="scale(0.1)"
       id="g12"><g
         id="g14"><g
           clip-path="url(#clipPath20)"
           id="g16"><path
             id="path36"
             style="fill:url(#linearGradient34);fill-opacity:1;fill-rule:nonzero;stroke:none"
             d="m 1594.55,463.332 c -631.226,0 -1144.741,513.52 -1144.741,1144.698 0,107.65 14.964,214.35 44.589,317.14 140.247,487.26 592.612,827.53 1100.152,827.53 631.16,0 1144.73,-513.5 1144.73,-1144.67 0,-60.47 -4.83,-121.34 -14.38,-180.88 C 2682.7,1161.14 2546.42,917.199 2341.21,740.398 2133.82,561.711 1868.57,463.332 1594.55,463.332 v 0" /></g></g><g
         id="g38"><g
           clip-path="url(#clipPath44)"
           id="g40"><path
             id="path52"
             style="fill:url(#radialGradient50);fill-opacity:1;fill-rule:nonzero;stroke:none"
             d="m 1594.53,2630.55 c -453.37,0 -857.514,-303.94 -982.776,-739.16 -26.438,-91.77 -39.805,-187.12 -39.805,-283.36 0,-563.8 458.691,-1022.55 1022.581,-1022.55 244.83,0 481.7,87.899 666.99,247.481 183.33,157.891 305.05,375.799 342.79,613.469 8.49,53.3 12.81,107.69 12.81,161.6 0,563.84 -458.77,1022.52 -1022.59,1022.52" /></g></g><g
         id="g54"><g
           clip-path="url(#clipPath60)"
           id="g56"><path
             id="path76"
             style="fill:url(#linearGradient74);fill-opacity:1;fill-rule:nonzero;stroke:none"
             d="M 2674.99,1233.82 H 514.07 v 360.41 h 2160.92 v -360.41" /></g></g><g
         id="g78"><g
           clip-path="url(#clipPath84)"
           id="g80"><path
             id="path92"
             style="fill:url(#linearGradient90);fill-opacity:1;fill-rule:nonzero;stroke:none"
             d="m 2424.87,1321 5.4,5.68 v 192.72 l -5.4,5.68 v 19.77 h 122.99 v -56.26 h -36.82 v 27.11 h -25.15 v -73.4 h 19.08 v 12.09 h 26.12 v -54.67 h -26.12 v 12.08 h -19.08 v -81.43 h 25.15 v 35.84 h 35.53 v -64.99 h -121.7 z m -23.78,-19.78 h -24.15 c -2.99,3.33 -5.71,6.67 -8.36,10.06 -14.1,-11.42 -30.16,-14.1 -43.22,-14.1 -19.14,0 -37.22,6.02 -49.65,25.49 -5.32,8.37 -8.67,19.43 -9.71,32.15 -2.98,43.23 -3.65,107.26 2.06,151.51 3.34,25.13 22.75,42.56 55.63,42.56 14.42,0 29.44,-1.33 39.49,-10.38 l 3.37,6.34 h 28.54 v -82.46 h -43.62 v 34.56 c 0,10.73 -4.04,16.79 -14.72,16.79 -9.39,0 -15.77,-5.06 -15.77,-21.47 v -142.15 c 0,-12.73 7.07,-14.4 11.05,-14.4 4.01,0 12.39,3.39 15.74,7.71 v 74.41 l -5.31,5.06 v 12.37 h 64 v -11.72 l -5.37,-5.71 z m -232.91,29.15 c 12.36,0 18.06,5.67 18.06,38.55 v 116.64 c 0,21.11 -1.68,30.14 -14.4,30.14 h -10.69 v -185.33 z m -68.06,-9.37 5.31,5.68 v 192.72 l -5.31,5.68 v 19.77 h 71.72 c 72.38,0 71.4,-48.58 71.4,-119.98 0,-33.83 -2.35,-61.33 -7.7,-84.47 -5.37,-22.77 -20.14,-39.18 -52.94,-39.18 h -82.48 z m -21.11,0 v -19.78 h -68.39 V 1321 l 5.38,5.68 v 192.72 l -5.38,5.68 v 19.77 h 68.39 v -19.77 l -5.35,-5.68 v -192.72 z m -160.88,111.91 c 8.36,0 12.73,3.71 12.73,12.07 v 58 c 0,9.72 -5.4,12.72 -11.73,12.72 h -11.05 v -82.79 z m 10.72,-131.69 v 85.1 c 0,9.73 -7.66,16.08 -20.77,15.43 v -75.07 l 5.35,-5.68 v -19.78 h -66.34 V 1321 l 5.34,5.68 v 192.72 l -5.34,5.68 v 19.77 h 84.44 c 42.6,0 55.64,-19.4 55.64,-61.66 0,-31.17 -6.04,-62.35 -28.48,-67.7 16.09,-3.69 26.49,-14.07 26.49,-31.84 v -56.97 l 5.31,-5.68 v -19.78 z m -158.83,41.55 v 50.26 c 0,13.41 -1.34,20.76 -11.07,20.76 h -11.4 v -83.42 c 8,0 22.47,-2.02 22.47,12.4 z m -13.09,100.22 c 12.07,0 12.72,17.42 12.72,38.18 0,20.16 -0.65,34.53 -11.43,34.53 h -10.67 v -72.71 z m -70.39,-121.99 5.34,5.68 v 192.72 l -5.34,5.68 v 19.77 h 75.43 c 57.96,0 61.99,-27.46 61.99,-63.31 0,-24.16 -4.71,-47.96 -26.16,-52.65 24.14,-7.03 30.85,-30.15 30.85,-55.66 0,-12.35 -0.34,-26.12 -3,-38.16 -4.37,-20.78 -25.81,-33.85 -49.28,-33.85 h -89.83 z m -145.46,149.11 c 4.73,5.71 8.74,18.09 9.07,28.85 0.31,12.05 -3.39,22.78 -14.76,22.78 -4.73,0 -10.74,-3.68 -8.38,-12.41 3.65,-11.39 10.06,-30.14 14.07,-39.22 z m -30.14,-51.28 c -5.38,-8.7 -7.75,-19.41 -8.07,-30.84 -0.68,-26.8 11.05,-55.29 34.89,-55.29 3.68,0 8.05,2.02 10.01,4.06 z m 53.26,-110.59 c -12.07,-8.03 -29.81,-11.38 -46.57,-11.38 -40.24,0 -68.74,26.79 -68.74,75.41 0,28.48 12.75,62.7 48.63,78.08 -13.42,28.5 -19.09,44.9 -18.13,57.33 0.71,27.46 24.86,41.21 50.64,41.21 34.17,0 56.31,-16.11 54.96,-50.61 -0.34,-20.11 -8.39,-41.22 -31.5,-54.32 l 30.5,-71.69 c 3.69,7.02 5.68,14.74 5.68,22.8 0.35,14.04 -4.68,28.8 -17.72,34.14 l 9.35,15.45 h 24.46 c 14.74,0 18.78,-0.7 21.81,-12.75 1.29,-5.35 1.29,-11.38 1.29,-16.78 -0.64,-23.44 -12.75,-55.25 -27.05,-76.02 3.27,-6.07 5.33,-8.43 14.66,-8.43 h 14.78 l -13.1,-29.46 h -31.13 c -12.07,0 -19.09,2.67 -22.82,7.02 z m -247.65,240.65 c 15.04,0 27.42,-2.02 36.83,-10.38 l 3.7,6.34 h 28.16 v -84.77 h -44.56 v 20.44 c 0,26.15 -0.34,32.84 -17.09,32.84 -7.72,0 -12.76,-3.67 -13.75,-10.38 -1.7,-11.07 -2.04,-35.86 0.65,-47.97 3.7,-14.05 27.14,-19.74 42.89,-25.44 21.1,-8.05 31.2,-17.77 35.52,-36.54 2.37,-10.74 3.02,-20.76 3.02,-32.47 0,-42.57 -14.07,-63.38 -62.34,-63.38 -13.39,0 -24.79,1.69 -36.2,10.08 l -4,-6.04 h -27.49 v 71.72 h 42.61 v -27.52 c 0,-10.7 5.34,-12.72 16.05,-12.72 14.41,0 16.11,6.01 16.42,12.42 0.3,8.03 0.66,17.43 0,24.82 -1.65,23.09 -35.2,25.13 -53.95,37.16 -24.84,17.77 -26.47,36.21 -26.47,76.76 0,27.85 6.01,48.27 21.45,57.67 10.01,6.35 24.79,7.36 38.55,7.36 z m -149.18,0 c 15.09,0 27.45,-2.02 36.9,-10.38 l 3.68,6.34 h 28.13 v -84.77 h -44.58 v 20.44 c 0,26.15 -0.36,32.84 -17.06,32.84 -7.73,0 -12.74,-3.67 -13.76,-10.38 -1.67,-11.07 -2.01,-35.86 0.68,-47.97 3.68,-14.05 27.14,-19.74 42.91,-25.44 21.1,-8.05 31.16,-17.77 35.52,-36.54 2.32,-10.74 3,-20.76 3,-32.47 0,-42.57 -14.05,-63.38 -62.34,-63.38 -13.4,0 -24.81,1.69 -36.17,10.08 l -4.03,-6.04 h -27.52 v 71.72 h 42.59 v -27.52 c 0,-10.7 5.36,-12.72 16.07,-12.72 14.4,0 16.07,6.01 16.45,12.42 0.34,8.03 0.66,17.43 0,24.82 -1.7,23.09 -35.23,25.13 -54.01,37.16 -24.78,17.77 -26.45,36.21 -26.45,76.76 0,27.85 6.03,48.27 21.44,57.67 10.1,6.35 24.81,7.36 38.55,7.36 z M 964.926,1321 l 5.383,5.68 v 192.72 l -5.383,5.68 v 19.77 h 123.034 v -56.26 h -36.85 v 27.11 h -25.17 v -73.4 h 19.11 v 12.09 h 26.15 v -54.67 h -26.15 v 12.08 h -19.11 v -81.43 h 25.17 v 35.84 h 35.52 v -64.99 H 964.926 Z m -106.219,0 v -19.78 H 792.344 V 1321 l 5.351,5.68 v 192.72 l -5.351,5.68 v 19.77 h 66.363 v -19.77 l -5.355,-5.68 v -75.44 h 30.48 v 75.44 l -5.355,5.68 v 19.77 h 66.363 v -19.77 l -5.352,-5.68 v -192.72 l 5.352,-5.68 v -19.78 H 878.477 V 1321 l 5.355,5.68 v 85.49 h -30.48 v -85.49 z m -118.324,217.51 3.351,6.34 h 28.524 v -84.77 h -43.59 v 36.87 c 0,12.38 -4.016,17.07 -15.098,17.07 -10.031,0 -14.414,-4.69 -14.414,-16.08 v -149.82 c 0,-7.02 3.696,-14.77 14.414,-14.77 19.793,0 22.469,3.71 23.129,39.59 h 34.848 c 1.019,-14.44 0,-32.54 -1.309,-43.24 -3.386,-24.5 -30.175,-32.52 -56.332,-32.52 -29.16,0 -64.328,5.04 -69.718,54.63 -2.348,21.13 -2.993,46.93 -2.993,73.4 0,27.82 0.321,57.66 5.36,84.48 5.691,30.49 32.511,39.2 60.968,39.2 7.743,0 22.813,-1.67 32.86,-10.38" /></g></g><path
         id="path94"
         style="fill:#e5e8f0;fill-opacity:1;fill-rule:nonzero;stroke:none"
         d="m 1932.55,1801.56 c 10.13,16.25 30.1,66.03 37.12,88.76 l -15.41,-109.09 -0.78,-6.06 H 1746 c 60.91,3.5 177.76,12.23 186.55,26.39 z m -271.71,125.79 c -21.01,139.53 -1.68,321.21 89.58,387.51 10.04,7.25 21.52,13.51 33.74,18.73 -93.5,-76.48 -131.03,-263.97 -123.32,-406.24 z m 417.29,269.96 c -30.2,19.86 -71.35,67.2 -85.35,100.8 -10.65,25.6 -26.88,40.18 -39.42,46.55 4.49,14.15 18.23,27.12 -11.01,51.59 -9.41,-6.71 -19.19,-14.57 -28.19,-24.68 -48.48,15.06 -126.32,5.2 -180.87,-34.41 -131.41,-95.49 -123.94,-379.68 -77.49,-511.1 7.4,-21.04 15.81,-38.21 24.79,-50.01 h 0.04 c -0.66,-2.52 -1.14,-4.97 -1.52,-7.23 h -0.22 c -4.3,0 -16.44,-3 -19.73,-16.78 -0.83,-3.12 -0.44,-6 0.55,-8.64 h -15.68 c -3.44,-3.23 -8.38,-8.4 -10.61,-13.81 -3.68,-8.97 -3.73,-26.82 -3.73,-26.82 h 393.85 c 0,0 -1.08,17.77 -4.22,26.21 -1.99,5.43 -7.07,10.96 -10.53,14.42 h -8.31 c 0.97,2.64 1.4,5.52 0.56,8.64 -3.29,13.78 -15.46,16.78 -19.68,16.78 h -0.23 c 0.09,2.2 -0.38,4.68 -1.06,7.23 h 0.15 l 6.38,50.01 10.51,81.77 c -70.07,54.76 -144.57,157.7 -141.93,254.88 0.47,17.13 15.56,15.1 15.99,2.88 0.91,-23.6 14.9,-64.74 66.57,-50.98 28.34,7.55 56.93,9.78 78.03,1.83 20.58,-7.64 24.56,-16.97 43.24,-26.17 0,0 19.12,17.38 32.85,43.44 12.67,23.99 20.6,41.08 -13.73,63.6" /><path
         id="path96"
         style="fill:#e5e8f0;fill-opacity:1;fill-rule:nonzero;stroke:none"
         d="m 1389.05,2333.59 c 12.21,-5.22 23.64,-11.48 33.7,-18.73 91.24,-66.3 110.56,-247.98 89.61,-387.51 7.71,142.27 -29.83,329.76 -123.31,406.24 z m -169.38,-558.42 -0.76,6.06 -15.41,109.09 c 7.05,-22.73 27.05,-72.51 37.12,-88.76 8.84,-14.16 125.64,-22.89 186.51,-26.39 z m 297.66,50.89 c 46.51,131.42 54.01,415.61 -77.43,511.1 -54.52,39.61 -132.4,49.47 -180.91,34.41 -8.99,10.11 -18.75,17.97 -28.2,24.68 -29.19,-24.47 -15.45,-37.44 -11,-51.59 -12.5,-6.37 -28.74,-20.95 -39.41,-46.55 -13.96,-33.6 -55.13,-80.94 -85.34,-100.8 -34.33,-22.52 -26.35,-39.61 -13.74,-63.6 13.74,-26.06 32.83,-43.44 32.83,-43.44 18.69,9.2 22.71,18.53 43.27,26.17 21.11,7.95 49.67,5.72 78.05,-1.83 51.65,-13.76 65.64,27.38 66.54,50.98 0.43,12.22 15.53,14.25 16,-2.88 2.64,-97.18 -71.85,-200.12 -141.95,-254.88 l 10.53,-81.77 6.42,-50.01 h 0.1 c -0.66,-2.55 -1.09,-5.03 -1.04,-7.23 h -0.21 c -4.27,0 -16.41,-3 -19.68,-16.78 -0.86,-3.12 -0.41,-6 0.54,-8.64 h -8.32 c -3.45,-3.46 -8.54,-8.99 -10.53,-14.42 -3.18,-8.44 -4.22,-26.21 -4.22,-26.21 h 393.83 c 0,0 -0.05,17.85 -3.76,26.82 -2.19,5.41 -7.09,10.58 -10.57,13.81 h -15.64 c 0.95,2.64 1.33,5.52 0.5,8.64 -3.28,13.78 -15.41,16.78 -19.68,16.78 h -0.22 c -0.39,2.26 -0.89,4.71 -1.55,7.23 h 0.05 c 9.02,11.8 17.38,28.97 24.74,50.01" /><path
         id="path98"
         style="fill:#ffffff;fill-opacity:1;fill-rule:nonzero;stroke:none"
         d="m 1986.88,2188.27 c -0.55,0.46 -1.32,0.98 -2.11,1.52 0.72,-0.57 1.4,-1 2.1,-1.56 0,0.02 0,0.02 0.01,0.04" /><path
         id="path100"
         style="fill:#e5e8f0;fill-opacity:1;fill-rule:evenodd;stroke:none"
         d="m 1548.54,1121.59 c -14.37,16 -30.4,25.63 -41.6,25.63 -10.89,0 -37.49,2.62 -59.99,-43.38 -22.37,45.14 -48.7,42.56 -59.49,42.56 -11.24,0 -27.21,-9.57 -41.65,-25.58 -14.37,-16 -11.98,-44.01 -7.06,-58.56 4.94,-14.6 107.79,-164.639 107.79,-164.639 0,0 104.15,150.859 109.05,165.399 4.95,14.6 7.34,42.58 -7.05,58.57" /><path
         id="path102"
         style="fill:#e5e8f0;fill-opacity:1;fill-rule:nonzero;stroke:none"
         d="m 1707.15,905.582 1.97,0.68 c 0.31,0.129 33.42,12.16 33.82,75.558 l 0.02,6.41 h -1.97 c -5.19,-27.57 -29.11,-47.308 -57.32,-47.179 -3.86,0.09 -7.69,0.449 -11.47,1.219 -26.92,5.609 -46.35,29.601 -46.16,57.121 0.08,15.549 6.21,30.049 17.24,40.939 11,10.9 25.62,16.82 41.1,16.73 3.84,0 7.72,-0.41 11.43,-1.18 23.1,-4.79 41.17,-23.45 45.3,-46.59 h 2.02 l 0.17,32.45 h -0.09 c -26.9,5.6 -46.38,29.6 -46.16,57.17 0.18,31.95 26.38,57.8 58.32,57.56 3.87,0 7.71,-0.35 11.48,-1.16 26.9,-5.56 46.32,-29.61 46.17,-57.13 -0.19,-27.75 -19.87,-51.37 -47,-56.58 l -0.18,-32.49 h 2.03 c 5.2,27.53 29.1,47.23 57.28,47.09 3.82,-0.05 7.7,-0.45 11.43,-1.22 26.94,-5.56 46.37,-29.6 46.21,-57.121 -0.25,-32 -26.41,-57.847 -58.36,-57.621 -3.86,0 -7.69,0.403 -11.44,1.172 v 0 c -23.16,4.789 -41.19,23.449 -45.32,46.692 h -1.97 l -0.05,-6.43 c -0.38,-63.442 32.54,-75.82 32.9,-75.961 l 2,-0.723 -7.64,-7.367 -0.84,0.367 c -0.12,0.043 -11.78,5.422 -24.92,8.211 -4.84,0.961 -9.34,1.461 -13.29,1.5 -17.42,0.133 -38.17,-9.14 -38.39,-9.219 l -0.81,-0.359 -7.51,7.461" /><path
         id="path104"
         style="fill:#e5e8f0;fill-opacity:1;fill-rule:nonzero;stroke:none"
         d="m 1251.51,997.398 c -1.22,-27.378 -21.76,-50.199 -48.89,-54.316 -20.68,-3.07 -41.15,5.34 -53.83,20.969 4.48,-42.071 24.76,-61.949 24.76,-61.949 l -4.76,-4.481 c 0,0 -15.86,8.578 -31.23,8.938 -15.36,0.371 -31.63,-7.5 -31.63,-7.5 l -4.54,4.671 c 0,0 20.99,18.739 27.5,60.192 -13.36,-14.641 -33.94,-21.871 -54.19,-17.852 -26.91,5.328 -46.39,29.02 -46.39,56.49 0.05,16.54 7.07,31.73 18.6,42.34 0,0 48.8,39 96.39,100.96 44.65,-64.08 91.58,-105.29 91.58,-105.29 11.01,-11.13 17.45,-26.62 16.63,-43.172" /><path
         id="path106"
         style="fill:#e5e8f0;fill-opacity:1;fill-rule:nonzero;stroke:none"
         d="m 1962.53,1024.75 99.46,-127.129 98.75,126.219 -99.48,127.17 -98.73,-126.26" /><path
         id="path108"
         style="fill:none;stroke:#100f0d;stroke-width:5;stroke-linecap:butt;stroke-linejoin:miter;stroke-miterlimit:4;stroke-dasharray:none;stroke-opacity:1"
         d="M 270,360 H 0" /><path
         id="path110"
         style="fill:none;stroke:#100f0d;stroke-width:5;stroke-linecap:butt;stroke-linejoin:miter;stroke-miterlimit:4;stroke-dasharray:none;stroke-opacity:1"
         d="M 360,270 V 0" /><path
         id="path112"
         style="fill:none;stroke:#100f0d;stroke-width:5;stroke-linecap:butt;stroke-linejoin:miter;stroke-miterlimit:4;stroke-dasharray:none;stroke-opacity:1"
         d="M 270,2860 H 0" /><path
         id="path114"
         style="fill:none;stroke:#100f0d;stroke-width:5;stroke-linecap:butt;stroke-linejoin:miter;stroke-miterlimit:4;stroke-dasharray:none;stroke-opacity:1"
         d="m 360,2950 v 270" /><path
         id="path116"
         style="fill:none;stroke:#100f0d;stroke-width:5;stroke-linecap:butt;stroke-linejoin:miter;stroke-miterlimit:4;stroke-dasharray:none;stroke-opacity:1"
         d="m 2950,2860 h 270" /><path
         id="path118"
         style="fill:none;stroke:#100f0d;stroke-width:5;stroke-linecap:butt;stroke-linejoin:miter;stroke-miterlimit:4;stroke-dasharray:none;stroke-opacity:1"
         d="m 2860,2950 v 270" /><path
         id="path120"
         style="fill:none;stroke:#100f0d;stroke-width:5;stroke-linecap:butt;stroke-linejoin:miter;stroke-miterlimit:4;stroke-dasharray:none;stroke-opacity:1"
         d="m 2950,360 h 270" /><path
         id="path122"
         style="fill:none;stroke:#100f0d;stroke-width:5;stroke-linecap:butt;stroke-linejoin:miter;stroke-miterlimit:4;stroke-dasharray:none;stroke-opacity:1"
         d="M 2860,270 V 0" /></g></g></svg>