<?xml version="1.0" encoding="UTF-8" standalone="no"?>
<svg
   xmlns:dc="http://purl.org/dc/elements/1.1/"
   xmlns:cc="http://creativecommons.org/ns#"
   xmlns:rdf="http://www.w3.org/1999/02/22-rdf-syntax-ns#"
   xmlns:svg="http://www.w3.org/2000/svg"
   xmlns="http://www.w3.org/2000/svg"
   height="80.5"
   width="80.366898"
   xml:space="preserve"
   viewBox="0 0 80.366898 80.5"
   y="0px"
   x="0px"
   id="Layer_1"
   version="1.1"><metadata
   id="metadata20"><rdf:RDF><cc:Work
       rdf:about=""><dc:format>image/svg+xml</dc:format><dc:type
         rdf:resource="http://purl.org/dc/dcmitype/StillImage" /><dc:title></dc:title></cc:Work></rdf:RDF></metadata><defs
   id="defs18"><clipPath
     id="clipPath3743"
     clipPathUnits="userSpaceOnUse"><rect
       y="-7.8521128"
       x="-13.556338"
       height="109.53521"
       width="104.65493"
       id="rect3745" /></clipPath><clipPath
     id="clipPath3757"
     clipPathUnits="userSpaceOnUse"><rect
       style="opacity:0.5;stroke-width:1.41421354"
       rx="0"
       ry="0"
       y="-23.924297"
       x="-2.635916"
       height="125.26055"
       width="87.302811"
       id="rect3759" /></clipPath></defs>
<g
   transform="translate(-4.3,-3.7)"
   clip-path="url(#clipPath3757)"
   id="XMLID_71_">
	<path
   d="m 174.1,34.2 c -5.7,0 -10.3,4.1 -10.3,10.6 0,6.9 4.3,10.9 10.3,10.9 3.1,0 5.9,-0.9 8.5,-2.7 l -2.3,-3.6 c -1.7,1.1 -3.6,1.8 -5.7,1.8 -2.8,0 -4.5,-1.5 -4.9,-4.4 h 13.2 c 0.2,-0.9 0.4,-1.8 0.4,-3.3 -0.1,-5.4 -3.3,-9.3 -9.2,-9.3 m 0.1,4 c 2.7,0 3.7,2 3.7,4.6 h -8.3 c 0.5,-2.9 2.3,-4.6 4.6,-4.6"
   id="XMLID_92_" />
	<path
   d="m 258.3,34.2 c -5.7,0 -10.3,4.1 -10.3,10.6 0,6.9 4.3,10.9 10.3,10.9 3.1,0 5.9,-0.9 8.5,-2.7 l -2.3,-3.6 c -1.7,1.1 -3.6,1.8 -5.7,1.8 -2.8,0 -4.5,-1.5 -4.9,-4.4 h 13.2 c 0.2,-0.9 0.4,-1.8 0.4,-3.3 0,-5.4 -3.3,-9.3 -9.2,-9.3 m 0.2,4 c 2.7,0 3.7,2 3.7,4.6 h -8.3 c 0.5,-2.9 2.3,-4.6 4.6,-4.6"
   id="XMLID_89_" />
	<path
   d="m 279.8,34.2 c -5.7,0 -10.3,4.1 -10.3,10.6 0,6.9 4.3,10.9 10.3,10.9 3.1,0 5.9,-0.9 8.5,-2.7 L 286,49.4 c -1.7,1.1 -3.6,1.8 -5.7,1.8 -2.8,0 -4.5,-1.5 -4.9,-4.4 h 13.2 c 0.2,-0.9 0.4,-1.8 0.4,-3.3 -0.1,-5.4 -3.3,-9.3 -9.2,-9.3 m 0.1,4 c 2.7,0 3.7,2 3.7,4.6 h -8.3 c 0.5,-2.9 2.3,-4.6 4.6,-4.6"
   id="XMLID_86_" />
	<path
   d="m 205.2,39.4 c -2.9,-0.7 -5.5,-1.4 -5.5,-3.6 0,-1.8 1.7,-3 4.3,-3 2.4,0 4.9,0.6 7.2,1.7 l 2,-4.3 C 210,28.7 206.9,28 203.7,28 c -5.8,0 -9.8,3.2 -9.8,7.9 0,5.9 4.8,7.1 9.1,8.3 3,0.8 5.6,1.4 5.6,3.7 0,2 -1.7,3.1 -4.6,3.1 -2.5,0 -5.3,-0.8 -7.9,-2.4 l -2.6,4.3 c 2.9,1.7 7,2.9 10.6,2.9 6.3,0 10.3,-3 10.3,-8 -0.1,-6.1 -5.1,-7.4 -9.2,-8.4"
   id="XMLID_85_" />
	<path
   d="m 131.4,42.9 v -1.8 c 0,-1.5 -0.9,-2.4 -2.8,-2.4 -2,0 -4,0.8 -6.5,2 l -2,-4.1 c 2.8,-1.4 6,-2.3 8.8,-2.3 5.9,0 8.2,2.9 8.2,7.1 V 50 c 0,1.1 0.7,1.6 1.7,1.6 v 3.9 c -3.9,0 -5.5,-0.6 -6.6,-2.5 -1.7,1.8 -3.6,2.9 -6.4,2.9 -3.6,0 -6.1,-2.2 -6.1,-5.4 -0.2,-4.7 4,-7.1 11.7,-7.6 m -3.9,8.8 c 1.7,0 3,-0.7 3.9,-1.7 v -4 c -3.2,0.2 -6.3,1 -6.3,3.6 0,1.2 0.9,2.1 2.4,2.1"
   id="XMLID_82_" />
	<path
   d="m 142.1,34.7 h 5.3 l 0.3,2.4 c 1.5,-1.6 3.7,-2.9 6.2,-2.9 4.6,0 6.5,2.8 6.5,7.5 v 13.6 h -5.6 V 41.5 c 0,-1.8 -0.8,-3.1 -2.7,-3.1 -1.7,0 -3.2,0.9 -4.4,2.4 v 14.4 h -5.6 z"
   id="XMLID_81_" />
	<path
   d="m 218.9,38.7 h -3.3 v -4 h 3.3 v -5.1 h 5.6 v 5.1 h 4.6 v 4 h -4.6 v 10.2 c 0,1.5 0.6,2.3 1.9,2.3 1,0 2,-0.3 2.8,-0.9 l 2.1,3.4 c -1.6,1.2 -3.7,2.1 -6,2.1 -4.3,0 -6.3,-2.1 -6.3,-6.7 V 38.7 Z"
   id="XMLID_80_" />
	<path
   d="m 233.8,34.7 h 5.2 l 0.4,3.2 c 1.6,-2.8 3.5,-3.7 5.9,-3.7 1,0 1.8,0.2 2.5,0.4 l -0.8,5.1 c -0.7,-0.3 -1.6,-0.5 -2.8,-0.5 -2.1,0 -3.5,1.3 -4.8,3.7 v 12.4 h -5.6 z"
   id="XMLID_79_" />
	<path
   d="m 293.8,38.7 h -3.3 v -4 h 3.3 v -5.1 h 5.6 v 5.1 h 4.6 v 4 h -4.6 v 10.2 c 0,1.5 0.6,2.3 1.9,2.3 1,0 2,-0.3 2.8,-0.9 l 2.1,3.4 c -1.6,1.2 -3.7,2.1 -6,2.1 -4.3,0 -6.3,-2.1 -6.3,-6.7 V 38.7 Z"
   id="XMLID_78_" />
	<g
   id="XMLID_72_">
		<path
   d="m 109.8,28.5 v 17.8 c 0,2.8 -1.3,4.3 -3.7,4.3 -1.6,0 -2.8,-0.8 -3.8,-2.1 L 98.6,52 c 2,2.4 4.7,3.7 7.9,3.7 5.6,0 9.1,-3.2 9.1,-9.3 V 28.5 Z"
   id="XMLID_77_" />
		<path
   d="m 17.4,59.2 4,-2.1 c 0.2,-0.1 0.5,0 0.6,0.2 4.6,7.7 13,12.8 22.5,12.8 14.4,0 26.1,-11.8 26,-26.2 0,-14.4 -11.8,-26.1 -26.2,-26 -14.4,0 -26.1,11.8 -26,26.2 0,1.7 0.2,3.3 0.5,4.9 v 0 c 0.1,0.3 -0.1,0.5 -0.4,0.6 l -4.4,1 C 13.8,50.7 13.5,50.5 13.4,50.3 13,48.3 12.8,46.2 12.8,44.1 12.8,26.7 26.9,12.4 44.3,12.4 61.8,12.3 76,26.4 76,43.9 76,61.3 61.9,75.6 44.5,75.6 32.8,75.6 22.6,69.3 17.1,59.9 c -0.1,-0.2 0,-0.5 0.3,-0.7 m 43.7,-8.4 4,2.2 c 0.2,0.1 0.6,0 0.7,-0.2 1.1,-2.7 1.7,-5.6 1.8,-8.6 0,-12.8 -10.3,-23.2 -23,-23.3 h -0.2 c -12.6,0 -22.9,10.3 -23.1,22.9 0,12.7 10.2,23.1 22.9,23.2 h 0.2 c 6,0 11.5,-2.3 15.6,-6.2 0.2,-0.2 0.2,-0.5 0.1,-0.7 L 56.7,57 C 56.5,56.8 56.2,56.9 56,57 v 0 c -3.1,2.7 -7.2,4.4 -11.6,4.4 H 44.3 C 34.6,61.3 26.8,53.4 26.9,43.7 27,34.1 34.9,26.3 44.4,26.3 h 0.1 c 9.7,0.1 17.5,8 17.4,17.7 0,2.1 -0.4,4.1 -1.1,6 v 0 c -0.1,0.4 0,0.6 0.3,0.8 M 67.7,11.2 C 67.5,11.1 67.2,11.1 67,11.3 L 64.4,15 c -0.1,0.2 -0.1,0.5 0.1,0.7 v 0 C 73.3,22 79.1,32.3 79.1,44 79.1,63.1 63.5,78.7 44.4,78.7 25.3,78.6 9.8,63.1 9.8,44 9.8,24.9 25.4,9.3 44.5,9.3 c 4.2,0 8.1,0.7 11.8,2.1 v 0 c 0.2,0.1 0.5,0 0.6,-0.3 L 58.5,6.8 C 58.6,6.6 58.5,6.3 58.2,6.2 53.9,4.6 49.2,3.7 44.4,3.7 22.3,3.8 4.3,21.8 4.3,44 c 0,22.1 18,40.2 40.2,40.2 22.1,0 40.2,-18 40.2,-40.2 -0.1,-13.6 -6.8,-25.5 -17,-32.8"
   id="XMLID_73_" />
	</g>
</g>
</svg>